<?xml version="1.0" encoding="UTF-8" standalone="no"?>
<!-- Created with Inkscape (http://www.inkscape.org/) -->

<svg
   width="240.14764mm"
   height="29.076571mm"
   viewBox="0 0 240.14764 29.076571"
   version="1.1"
   id="svg1"
   xml:space="preserve"
   xmlns="http://www.w3.org/2000/svg"
   xmlns:svg="http://www.w3.org/2000/svg"><defs
     id="defs1" /><g
     id="layer1"
     transform="translate(-30.478549,-85.669809)"><path
       style="display:inline;fill:#ffffff"
       d="m 128.53799,114.6177 c 0,-0.069 0.70871,-2.08224 1.57492,-4.47383 3.41738,-9.43536 4.99163,-13.81894 6.68927,-18.62654 0.97364,-2.75728 1.83324,-5.17207 1.91022,-5.3662 l 0.13996,-0.35297 13.08718,0.0357 c 12.17331,0.0332 13.12646,0.0514 13.6496,0.26027 0.88246,0.3524 1.40588,0.82589 1.75429,1.58691 0.28355,0.61935 0.31117,0.8104 0.24968,1.72696 -0.0693,1.03327 -0.27407,1.69186 -1.93811,6.23417 -0.25572,0.69804 -0.77352,2.14743 -1.15067,3.22087 -0.37714,1.07343 -0.87079,2.30136 -1.097,2.72872 -0.60769,1.1481 -1.97602,2.47441 -3.14453,3.048 -1.63835,0.8042 -1.96847,0.8288 -11.22766,0.83656 l -8.24963,0.007 -1.63697,4.62999 -1.63698,4.63 h -4.48678 c -2.87267,0 -4.48679,-0.0452 -4.48679,-0.1255 z m 27.26586,-15.30808 c 0.36468,-0.18173 0.81033,-0.52351 0.99034,-0.75951 0.37738,-0.49477 2.07704,-5.20894 2.07704,-5.76087 0,-0.2074 -0.13426,-0.52546 -0.30624,-0.72544 l -0.30623,-0.3561 h -6.38865 -6.38865 l -1.35685,3.87098 c -0.74627,2.12904 -1.36023,3.91381 -1.36436,3.96617 -0.004,0.0523 2.7798,0.0952 6.18651,0.0952 h 6.19403 z m 6.49015,14.76879 c 0.67793,-1.82993 5.31003,-14.84262 6.81108,-19.13397 0.93998,-2.68728 1.85824,-5.14313 2.04058,-5.45744 0.18235,-0.31431 0.71806,-0.95341 1.19047,-1.42023 0.98234,-0.97069 2.46644,-1.76778 3.7324,-2.00461 0.53869,-0.10078 4.28939,-0.13124 12.81865,-0.1041 l 12.05715,0.0384 0.59266,0.27668 c 0.85363,0.39852 1.55575,1.08666 1.88162,1.84418 0.23992,0.5577 0.27407,0.81645 0.22186,1.6806 -0.0554,0.91702 -0.24628,1.53372 -1.8677,6.03463 -2.52673,7.01398 -3.20944,8.89199 -5.92872,16.30888 -0.38389,1.04707 -0.75539,2.06082 -0.82556,2.25279 l -0.12757,0.34902 h -4.74362 -4.74362 l 0.68119,-1.93549 c 0.6284,-1.78553 2.46867,-6.84723 2.67629,-7.36121 0.0848,-0.20991 -0.29001,-0.2221 -6.82556,-0.2221 h -6.91527 l -1.27128,3.52196 c -0.6992,1.93707 -1.46374,4.06452 -1.69897,4.72767 l -0.4277,1.20571 -4.7879,0.0333 -4.78789,0.0333 z m 29.74046,-17.7065 c 0.61161,-1.72766 1.11032,-3.33121 1.10824,-3.56344 -0.003,-0.2942 -0.11629,-0.53475 -0.37478,-0.79324 l -0.37099,-0.37098 -5.62585,0.004 c -5.58937,0.004 -5.6295,0.005 -6.18709,0.29062 -0.93701,0.47925 -1.18887,0.92894 -2.42019,4.32113 -0.62886,1.73249 -1.14339,3.17328 -1.14339,3.20176 0,0.0285 3.12796,0.0518 6.95101,0.0518 h 6.95102 z m 10.02531,18.14143 c -1.55612,-0.50431 -2.33851,-1.51784 -2.42546,-3.14197 -0.0468,-0.87368 -0.0127,-0.99376 1.31326,-4.63248 0.74871,-2.05455 2.37947,-6.57855 3.62391,-10.05333 1.24445,-3.47478 2.40992,-6.58839 2.58993,-6.91913 0.95517,-1.75497 2.67991,-3.06354 4.72838,-3.58745 0.92065,-0.23546 1.51362,-0.24601 13.82372,-0.24601 7.07399,0 12.86181,0.0423 12.86181,0.0939 0,0.0517 -0.43654,1.33531 -0.97009,2.85255 l -0.97009,2.75862 -9.53232,0.0348 -9.53232,0.0348 -0.52712,0.28188 c -0.83513,0.44659 -1.194,1.01182 -1.9323,3.04345 -0.37541,1.03306 -1.56472,4.27702 -2.6429,7.20881 -1.57187,4.27424 -1.94674,5.41681 -1.89176,5.76595 0.14021,0.89034 -0.59024,0.82696 10.33988,0.89721 l 9.87307,0.0635 -1.02507,2.88613 -1.02508,2.88613 -13.00902,-0.007 c -11.85354,-0.006 -13.06778,-0.0256 -13.67043,-0.22087 z m 33.72336,0.0348 c -1.28019,-0.39751 -2.03067,-1.41839 -2.03067,-2.76234 0,-0.84969 -0.26081,-0.0862 6.74898,-19.757 0.48432,-1.35908 1.03437,-2.75454 1.22234,-3.10103 0.7451,-1.37347 2.44159,-2.56387 4.08625,-2.86728 0.44943,-0.0829 4.99816,-0.11731 12.75732,-0.0965 l 12.05885,0.0324 -1.01747,2.82285 -1.01747,2.82286 -8.94767,0.002 c -5.8362,0.001 -9.11401,0.048 -9.42601,0.1346 -0.89065,0.24734 -1.24089,0.76495 -2.02042,2.98592 -0.38994,1.11099 -0.75009,2.11992 -0.80034,2.24208 -0.0865,0.21037 0.41277,0.22211 9.44956,0.22211 9.0294,0 9.53708,0.0119 9.469,0.2221 -0.0396,0.12216 -0.51475,1.42148 -1.05597,2.88737 l -0.98403,2.66527 -9.50251,0.0635 -9.50251,0.0635 -0.74572,2.13879 c -0.81233,2.32984 -0.90118,2.94821 -0.4786,3.33071 0.25634,0.23202 0.6525,0.24433 9.82447,0.30523 l 9.55735,0.0635 -1.03544,2.88632 -1.03544,2.88633 -12.50136,-0.008 c -10.3303,-0.006 -12.60054,-0.0386 -13.07249,-0.18513 z"
       id="path1" /><path
       style="display:inline;fill:#ffffff"
       d="m 33.132434,114.36108 c -0.869693,-0.1985 -1.839699,-0.86594 -2.268575,-1.56095 -0.35887,-0.58157 -0.38531,-0.70785 -0.38531,-1.8403 v -1.21589 l 1.547736,-4.18827 c 0.851254,-2.30355 2.467617,-6.72744 3.591916,-9.83086 1.124299,-3.10343 2.191412,-5.91311 2.371363,-6.24374 0.808313,-1.48514 2.343022,-2.72036 4.1935,-3.37517 l 0.987218,-0.34933 H 56.56006 69.949838 l 0.76113,0.35635 c 0.876659,0.41045 1.233157,0.71016 1.689592,1.42049 0.268511,0.41787 0.335338,0.6985 0.377789,1.58646 l 0.05157,1.0788 -1.482628,4.12481 c -0.815446,2.26865 -1.815044,5.06718 -2.22133,6.21895 -2.155705,6.11118 -3.483527,9.65456 -3.846671,10.2651 -0.585601,0.98453 -1.874658,2.20629 -2.891714,2.74074 -1.816009,0.95429 -0.586033,0.88182 -15.409778,0.90787 -7.888081,0.0139 -13.538134,-0.0249 -13.845368,-0.0951 z m 21.841159,-5.78037 c 1.112356,-0.60214 1.357004,-1.0092 2.542734,-4.23076 3.052713,-8.29404 4.120426,-11.33972 4.120426,-11.75362 0,-0.62141 -0.532751,-1.14263 -1.280269,-1.25255 -0.308017,-0.0453 -3.015882,-0.0645 -6.017477,-0.0426 -6.044094,0.044 -5.815363,0.0132 -6.769176,0.91065 -0.567858,0.53427 -0.595185,0.59396 -1.838263,4.01542 -0.59599,1.6404 -1.744492,4.74927 -2.552227,6.9086 -1.465703,3.91829 -1.639401,4.59226 -1.331698,5.16721 0.317695,0.59362 0.557583,0.61423 6.780084,0.58236 5.71705,-0.0293 5.848732,-0.0356 6.345866,-0.30471 z m 12.374835,5.8909 c 2.17e-4,-0.0175 0.575173,-1.63089 1.27768,-3.58542 0.702507,-1.95452 2.734583,-7.63313 4.515724,-12.61914 2.147965,-6.01285 3.38063,-9.28773 3.660712,-9.72557 0.882835,-1.38009 2.069803,-2.23289 3.698196,-2.65703 1.078783,-0.28099 27.47795,-0.28861 28.40967,-0.008 1.14406,0.34431 1.70671,1.25709 1.52445,2.4731 -0.0776,0.51741 -2.4234,7.09873 -6.74372,18.9197 -0.80364,2.19884 -1.72048,4.72609 -2.03742,5.61609 l -0.57626,1.6182 h -4.807582 c -2.644165,0 -4.807573,-0.0259 -4.807573,-0.0575 0,-0.0316 0.0557,-0.18868 0.12377,-0.34902 0.27006,-0.63612 3.203482,-8.63466 5.403,-14.73234 2.545085,-7.05564 2.539105,-7.03036 1.807548,-7.64593 l -0.373377,-0.31417 -5.606327,0.003 c -6.244554,0.003 -6.160487,-0.008 -7.033291,0.88968 -0.460207,0.47309 -0.547447,0.68707 -2.895759,7.10332 -0.88141,2.40826 -2.132758,5.80647 -2.780774,7.55158 -0.648016,1.74511 -1.541998,4.15813 -1.986627,5.36225 l -0.808416,2.18933 h -4.982009 c -2.740106,0 -4.981832,-0.0143 -4.981615,-0.0317 z"
       id="path2" /><path
       style="fill:#ffffff;stroke-width:5.78595"
       d="m 118.84778,92.79099 -2.24536,4.91128 h 8.0993 l 2.12507,-4.91127 z"
       id="path3" /><path
       style="fill:#ffffff;stroke-width:5.75436"
       d="m 115.2694,103.04305 -2.22091,4.9113 h 8.0111 l 2.10193,-4.9113 z"
       id="path3-4" /></g></svg>
